<mxfile host="app.diagrams.net" modified="2023-11-18T00:08:18.483Z" agent="Mozilla/5.0 (Windows NT 10.0; Win64; x64; rv:109.0) Gecko/20100101 Firefox/119.0" etag="x0M4AiDr-yHxm2_Fzjk4" version="22.1.2" type="device">
  <diagram name="Página-1" id="DrSZBsnZw_4A21dElvwP">
    <mxGraphModel dx="874" dy="452" grid="1" gridSize="10" guides="1" tooltips="1" connect="1" arrows="1" fold="1" page="1" pageScale="1" pageWidth="827" pageHeight="1169" math="0" shadow="0">
      <root>
        <mxCell id="0" />
        <mxCell id="1" parent="0" />
        <mxCell id="fgAH8t1qo1pRxu8jLGUX-1" value="Usuario" style="swimlane;childLayout=stackLayout;horizontal=1;startSize=50;horizontalStack=0;rounded=1;fontSize=14;fontStyle=0;strokeWidth=2;resizeParent=0;resizeLast=1;shadow=0;dashed=0;align=center;arcSize=4;whiteSpace=wrap;html=1;" vertex="1" parent="1">
          <mxGeometry x="310" y="10" width="160" height="120" as="geometry" />
        </mxCell>
        <mxCell id="fgAH8t1qo1pRxu8jLGUX-2" value="&lt;div&gt;-id: Long&lt;/div&gt;&lt;div&gt;-nombreUsuario: String&lt;/div&gt;&lt;div&gt;-contraseña: String&lt;/div&gt;&lt;div&gt;-rol: Rol&lt;/div&gt;&lt;div&gt;&lt;br&gt;&lt;/div&gt;" style="align=left;strokeColor=none;fillColor=none;spacingLeft=4;fontSize=12;verticalAlign=top;resizable=0;rotatable=0;part=1;html=1;" vertex="1" parent="fgAH8t1qo1pRxu8jLGUX-1">
          <mxGeometry y="50" width="160" height="70" as="geometry" />
        </mxCell>
        <mxCell id="fgAH8t1qo1pRxu8jLGUX-4" value="Profesional" style="swimlane;childLayout=stackLayout;horizontal=1;startSize=50;horizontalStack=0;rounded=1;fontSize=14;fontStyle=0;strokeWidth=2;resizeParent=0;resizeLast=1;shadow=0;dashed=0;align=center;arcSize=4;whiteSpace=wrap;html=1;" vertex="1" parent="1">
          <mxGeometry x="11" y="210" width="160" height="240" as="geometry" />
        </mxCell>
        <mxCell id="fgAH8t1qo1pRxu8jLGUX-5" value="&lt;div&gt;-id: String&lt;/div&gt;&lt;div&gt;-especialidad&lt;/div&gt;&lt;div&gt;-Reputacion int&lt;br&gt;&lt;/div&gt;&lt;div&gt;&lt;br&gt;&lt;/div&gt;&lt;div&gt;-valorConsulta: double&lt;br&gt;&lt;/div&gt;" style="align=left;strokeColor=none;fillColor=none;spacingLeft=4;fontSize=12;verticalAlign=top;resizable=0;rotatable=0;part=1;html=1;" vertex="1" parent="fgAH8t1qo1pRxu8jLGUX-4">
          <mxGeometry y="50" width="160" height="190" as="geometry" />
        </mxCell>
        <mxCell id="fgAH8t1qo1pRxu8jLGUX-9" value="Paciente" style="swimlane;childLayout=stackLayout;horizontal=1;startSize=50;horizontalStack=0;rounded=1;fontSize=14;fontStyle=0;strokeWidth=2;resizeParent=0;resizeLast=1;shadow=0;dashed=0;align=center;arcSize=4;whiteSpace=wrap;html=1;" vertex="1" parent="1">
          <mxGeometry x="650" y="230" width="160" height="170" as="geometry" />
        </mxCell>
        <mxCell id="fgAH8t1qo1pRxu8jLGUX-10" value="&lt;div&gt;-id: String&lt;/div&gt;&lt;div&gt;-foto: jpg&lt;/div&gt;&lt;div&gt;-datosContacto: String&lt;/div&gt;&lt;div&gt;-obraSocial: String&lt;br&gt;&lt;/div&gt;" style="align=left;strokeColor=none;fillColor=none;spacingLeft=4;fontSize=12;verticalAlign=top;resizable=0;rotatable=0;part=1;html=1;" vertex="1" parent="fgAH8t1qo1pRxu8jLGUX-9">
          <mxGeometry y="50" width="160" height="120" as="geometry" />
        </mxCell>
        <mxCell id="fgAH8t1qo1pRxu8jLGUX-11" value="Turno" style="swimlane;childLayout=stackLayout;horizontal=1;startSize=50;horizontalStack=0;rounded=1;fontSize=14;fontStyle=0;strokeWidth=2;resizeParent=0;resizeLast=1;shadow=0;dashed=0;align=center;arcSize=4;whiteSpace=wrap;html=1;" vertex="1" parent="1">
          <mxGeometry x="290" y="450" width="160" height="160" as="geometry" />
        </mxCell>
        <mxCell id="fgAH8t1qo1pRxu8jLGUX-12" value="&lt;div&gt;-id:String&lt;/div&gt;&lt;div&gt;-fechaHora: Date&lt;/div&gt;&lt;div&gt;-estado: String&lt;/div&gt;&lt;div&gt;-Profesional&lt;/div&gt;&lt;div&gt;-Paciente&lt;br&gt;&lt;/div&gt;" style="align=left;strokeColor=none;fillColor=none;spacingLeft=4;fontSize=12;verticalAlign=top;resizable=0;rotatable=0;part=1;html=1;" vertex="1" parent="fgAH8t1qo1pRxu8jLGUX-11">
          <mxGeometry y="50" width="160" height="110" as="geometry" />
        </mxCell>
        <mxCell id="fgAH8t1qo1pRxu8jLGUX-13" value="HistoriaClinica" style="swimlane;childLayout=stackLayout;horizontal=1;startSize=50;horizontalStack=0;rounded=1;fontSize=14;fontStyle=0;strokeWidth=2;resizeParent=0;resizeLast=1;shadow=0;dashed=0;align=center;arcSize=4;whiteSpace=wrap;html=1;" vertex="1" parent="1">
          <mxGeometry x="350" y="150" width="160" height="150" as="geometry" />
        </mxCell>
        <mxCell id="fgAH8t1qo1pRxu8jLGUX-14" value="&lt;div&gt;-id: Long&lt;/div&gt;&lt;div&gt;-notas: ArrayList&amp;lt;fichas&amp;gt;&lt;br&gt;&lt;/div&gt;&lt;div&gt;-fecha: Date&lt;/div&gt;&lt;div&gt;-Profesional &lt;br&gt;&lt;/div&gt;&lt;div&gt;-Paciente&lt;/div&gt;" style="align=left;strokeColor=none;fillColor=none;spacingLeft=4;fontSize=12;verticalAlign=top;resizable=0;rotatable=0;part=1;html=1;" vertex="1" parent="fgAH8t1qo1pRxu8jLGUX-13">
          <mxGeometry y="50" width="160" height="100" as="geometry" />
        </mxCell>
        <mxCell id="fgAH8t1qo1pRxu8jLGUX-23" value="Extends" style="endArrow=block;endSize=16;endFill=0;html=1;rounded=0;" edge="1" parent="1" source="fgAH8t1qo1pRxu8jLGUX-9" target="fgAH8t1qo1pRxu8jLGUX-1">
          <mxGeometry x="-0.25" width="160" relative="1" as="geometry">
            <mxPoint x="650" y="180" as="sourcePoint" />
            <mxPoint x="810" y="180" as="targetPoint" />
            <Array as="points">
              <mxPoint x="530" y="170" />
            </Array>
            <mxPoint as="offset" />
          </mxGeometry>
        </mxCell>
        <mxCell id="fgAH8t1qo1pRxu8jLGUX-22" value="Extends" style="endArrow=block;endSize=16;endFill=0;html=1;rounded=0;" edge="1" parent="1" source="fgAH8t1qo1pRxu8jLGUX-4" target="fgAH8t1qo1pRxu8jLGUX-1">
          <mxGeometry x="-0.5" y="30" width="160" relative="1" as="geometry">
            <mxPoint x="140" y="234.97" as="sourcePoint" />
            <mxPoint x="309.03999999999996" y="119.99999999999997" as="targetPoint" />
            <Array as="points">
              <mxPoint x="160" y="124.97" />
            </Array>
            <mxPoint as="offset" />
          </mxGeometry>
        </mxCell>
        <mxCell id="fgAH8t1qo1pRxu8jLGUX-26" value="" style="edgeStyle=entityRelationEdgeStyle;fontSize=12;html=1;endArrow=ERmandOne;startArrow=ERmandOne;rounded=0;exitX=1;exitY=0.25;exitDx=0;exitDy=0;" edge="1" parent="1" source="fgAH8t1qo1pRxu8jLGUX-14" target="fgAH8t1qo1pRxu8jLGUX-9">
          <mxGeometry width="100" height="100" relative="1" as="geometry">
            <mxPoint x="360" y="490" as="sourcePoint" />
            <mxPoint x="460" y="390" as="targetPoint" />
          </mxGeometry>
        </mxCell>
        <mxCell id="fgAH8t1qo1pRxu8jLGUX-27" value="" style="edgeStyle=entityRelationEdgeStyle;fontSize=12;html=1;endArrow=ERoneToMany;rounded=0;exitX=1;exitY=0.5;exitDx=0;exitDy=0;" edge="1" parent="1" source="fgAH8t1qo1pRxu8jLGUX-5" target="fgAH8t1qo1pRxu8jLGUX-11">
          <mxGeometry width="100" height="100" relative="1" as="geometry">
            <mxPoint x="380" y="510" as="sourcePoint" />
            <mxPoint x="480" y="410" as="targetPoint" />
          </mxGeometry>
        </mxCell>
        <mxCell id="fgAH8t1qo1pRxu8jLGUX-28" value="" style="edgeStyle=entityRelationEdgeStyle;fontSize=12;html=1;endArrow=ERzeroToMany;startArrow=ERmandOne;rounded=0;" edge="1" parent="1" source="fgAH8t1qo1pRxu8jLGUX-10" target="fgAH8t1qo1pRxu8jLGUX-11">
          <mxGeometry width="100" height="100" relative="1" as="geometry">
            <mxPoint x="610" y="460" as="sourcePoint" />
            <mxPoint x="710" y="360" as="targetPoint" />
          </mxGeometry>
        </mxCell>
        <mxCell id="fgAH8t1qo1pRxu8jLGUX-29" value="" style="edgeStyle=entityRelationEdgeStyle;fontSize=12;html=1;endArrow=ERoneToMany;rounded=0;" edge="1" parent="1" source="fgAH8t1qo1pRxu8jLGUX-13" target="fgAH8t1qo1pRxu8jLGUX-4">
          <mxGeometry width="100" height="100" relative="1" as="geometry">
            <mxPoint x="190" y="590" as="sourcePoint" />
            <mxPoint x="110" y="430" as="targetPoint" />
          </mxGeometry>
        </mxCell>
      </root>
    </mxGraphModel>
  </diagram>
</mxfile>
